<?xml version="1.0" encoding="UTF-8"?>
<svg width="32px" height="43px" viewBox="0 0 32 43" version="1.1" xmlns="http://www.w3.org/2000/svg" xmlns:xlink="http://www.w3.org/1999/xlink">
    <!-- Generator: Sketch 45.2 (43514) - http://www.bohemiancoding.com/sketch -->
    <title>&amp;</title>
    <desc>Created with Sketch.</desc>
    <defs></defs>
    <g id="Page-1" stroke="none" stroke-width="1" fill="none" fill-rule="evenodd">
        <g id="Desktop-Copy" transform="translate(-505.000000, -691.000000)" fill="#FFFFFF">
            <path d="M510.464,725.624 C510.656,719.8 518.08,714.296 527.04,713.528 C528.064,713.464 528.64,713.016 528.32,712.12 C527.808,710.904 526.464,709.176 523.008,709.24 C520.96,709.304 519.296,708.984 519.104,706.744 C518.72,701.432 527.616,695.224 530.624,695.288 C531.2,695.288 531.52,695.544 531.52,696.056 C531.52,697.08 530.24,698.232 529.28,701.624 C528.896,702.712 528.704,703.544 528.704,704.248 C528.704,706.104 529.728,707.448 530.944,708.088 C532.288,708.792 532.928,708.408 533.184,707.576 C533.696,706.168 534.848,703.48 535.808,701.56 C536.512,700.216 536.832,699.128 536.832,698.04 C536.832,696.568 535.936,695.16 534.208,693.624 C532.672,692.28 531.008,691.832 529.216,691.832 C527.616,691.832 526.208,692.152 524.736,692.6 C520.32,694.008 512.96,699.576 513.28,705.976 C513.408,708.408 514.56,709.944 516.416,710.776 C509.952,713.144 505.344,719.032 505.344,724.28 C505.344,726.712 506.368,729.144 508.608,731.128 C510.72,732.984 513.28,733.752 515.84,733.752 C520.448,733.752 524.864,731.128 527.232,728.056 C529.216,725.432 529.792,723 529.536,721.272 C531.392,720.952 533.312,720.76 535.104,721.016 C536.448,721.144 536.832,720.632 536.576,719.672 C535.552,717.496 533.504,715.96 530.048,716.216 C528.256,716.344 526.272,716.792 524.288,717.24 C521.856,717.816 519.936,718.328 517.888,718.264 C516.352,718.264 516.224,718.968 516.608,719.864 C517.568,721.848 519.168,723 522.496,722.552 L524.288,722.296 C521.472,727.736 516.736,730.168 514.048,729.976 C511.616,729.784 510.4,728.056 510.464,725.624 Z" id="&amp;"></path>
        </g>
    </g>
</svg>