<svg width="107" height="114" xmlns="http://www.w3.org/2000/svg" xmlns:xlink="http://www.w3.org/1999/xlink">
  <defs>
    <path d="M19.059.516c-6.365.55-12.935.516-19.059 0 .447 2.58.516 6.055.069 8.841l.172.104c1.514-1.067 3.371-2.065 5.917-2.546.172 7.43-.482 14.242-1.273 21.88 2.615-.517 6.57-.482 9.323 0-.826-7.569-1.548-14.415-1.307-21.88 2.477.447 4.266 1.445 5.951 2.546l.207-.104c-.413-2.786-.413-6.26 0-8.841zm5.022 7.672c2.168 0 3.888-1.617 3.888-3.922 0-2.236-1.72-3.956-3.888-3.956-2.201 0-3.887 1.72-3.887 3.956 0 2.305 1.686 3.922 3.887 3.922zM20.297 28.76c2.65-.447 5.023-.447 7.569 0-.895-8.119-.895-10.733-.138-18.543-2.615.344-4.679.344-7.293 0 .722 7.81.722 10.424-.138 18.543zm22.327-13.83c7.293-1.616 5.264-9.15 7.087-14.38-2.924.448-6.33.448-9.048 0 .413 6.743.62 12.523-3.165 13.039-.034-3.819.275-8.463.723-13.039a32.98 32.98 0 0 1-8.635 0c1.17 9.323 1.17 19.3 0 28.279 2.958-.516 5.814-.516 8.635 0-.448-4.266-.688-8.635-.688-12.282 3.75.55 3.612 6.02 3.337 12.282 2.717-.55 6.158-.55 9.082 0-2.202-4.335.619-12.694-7.328-13.899zm12.04-6.742c2.168 0 3.888-1.617 3.888-3.922 0-2.236-1.72-3.956-3.887-3.956-2.202 0-3.888 1.72-3.888 3.956 0 2.305 1.686 3.922 3.888 3.922zM50.882 28.76c2.648-.447 5.022-.447 7.568 0-.894-8.119-.894-10.733-.138-18.543-2.614.344-4.678.344-7.293 0 .723 7.81.723 10.424-.137 18.543z" id="a"/>
    <path d="M6.123 22.79c4.508 0 6.87-2.736 6.87-6.198 0-7.11-7.3-7.889-7.3-10.519 0-.67.484-1.1 1.342-1.1 1.315 0 3.274.725 5.045 2.523l.16-.054c-.294-2.657-.294-4.616 0-6.95C9.96 1.19 9.129.277 6.875.277 2.742.277.193 2.692.193 6.53c0 7.058 7.11 7.219 7.11 10.412 0 .885-.617 1.422-1.663 1.422-1.717 0-3.73-1.932-4.938-3.864l-.187.054c.322 2.817.268 5.34 0 8.023 2.173-.751 3.327.215 5.608.215zM29.173.52a25.725 25.725 0 0 1-6.735 0c.456 3.569.644 6.52.697 10.062-1.02.08-2.039.08-3.059 0 .054-3.515.242-6.547.59-10.062a25.725 25.725 0 0 1-6.735 0c.913 7.272.913 15.053 0 22.057 2.308-.403 4.535-.403 6.736 0-.322-3.3-.51-5.984-.564-9.284.993-.08 2.04-.08 3.032 0a75.982 75.982 0 0 1-.697 9.284c2.307-.403 4.535-.403 6.735 0-.751-7.138-.751-14.839 0-22.057zm13.98 15.188l-.134-.054c-1.905 1.53-3.837 2.522-6.306 2.925-.107-2.04-.107-3.972-.134-5.984 1.717.107 3.461.859 4.696 1.637l.107-.054c-.349-1.368-.349-4.293 0-5.77l-.107-.053c-1.342.859-3.006 1.637-4.723 1.744.027-1.878 0-3.649.107-5.581 2.335.134 4.32.59 6.199 2.12l.188-.054c-.403-2.173-.376-4.24 0-6.145-4.991.456-8.48.322-12.531 0 .992 7.272.992 15.054 0 22.192 4.051-.376 7.7-.51 12.638-.027-.322-1.905-.349-4.723 0-6.896zM51.66.357c5.233 0 7.836 4.911 7.836 11.62 0 6.225-2.227 10.733-7.836 10.733-2.039 0-3.273-.43-4.695-.43-.886 0-1.61.135-2.657.35.912-7.004.912-14.947 0-22.245 1.073.241 1.771.322 2.657.322 1.449 0 2.656-.35 4.695-.35zm-.536 17.872c1.878 0 2.764-2.415 2.764-6.252 0-4.374-.886-7.111-2.818-7.111-.16 0-.322 0-.51.053-.134 4.696-.107 8.695 0 13.283.215.027.376.027.564.027z" id="c"/>
    <path d="M.063 4.31c5.517-1.047 9.699-.961 15.283 0-.199-1.592-.133-2.785 0-4.31C9.762.84 5.603.851.063 0c.133 1.525.1 2.718 0 4.31z" id="f"/>
    <filter x="-26.2%" y="-46.4%" width="152.3%" height="285.6%" filterUnits="objectBoundingBox" id="e">
      <feMorphology radius="1" operator="dilate" in="SourceAlpha" result="shadowSpreadOuter1"/>
      <feOffset dy="2" in="shadowSpreadOuter1" result="shadowOffsetOuter1"/>
      <feColorMatrix values="0 0 0 0 0.968627451 0 0 0 0 0.917647059 0 0 0 0 0.815686275 0 0 0 1 0" in="shadowOffsetOuter1"/>
    </filter>
    <path d="M.063 4.31c5.517-1.047 9.699-.961 15.283 0-.199-1.592-.133-2.785 0-4.31C9.762.84 5.603.851.063 0c.133 1.525.1 2.718 0 4.31z" id="h"/>
    <filter x="-26.2%" y="-46.4%" width="152.3%" height="285.6%" filterUnits="objectBoundingBox" id="g">
      <feMorphology radius="1" operator="dilate" in="SourceAlpha" result="shadowSpreadOuter1"/>
      <feOffset dy="2" in="shadowSpreadOuter1" result="shadowOffsetOuter1"/>
      <feColorMatrix values="0 0 0 0 0.968627451 0 0 0 0 0.917647059 0 0 0 0 0.815686275 0 0 0 1 0" in="shadowOffsetOuter1"/>
    </filter>
    <path d="M49.79 4.31c5.517-1.047 9.7-.961 15.283 0-.198-1.592-.132-2.785 0-4.31-5.584.84-9.742.851-15.282 0 .132 1.525.099 2.718 0 4.31z" id="j"/>
    <filter x="-26.2%" y="-46.4%" width="152.3%" height="285.6%" filterUnits="objectBoundingBox" id="i">
      <feMorphology radius="1" operator="dilate" in="SourceAlpha" result="shadowSpreadOuter1"/>
      <feOffset dy="2" in="shadowSpreadOuter1" result="shadowOffsetOuter1"/>
      <feColorMatrix values="0 0 0 0 0.968627451 0 0 0 0 0.917647059 0 0 0 0 0.815686275 0 0 0 1 0" in="shadowOffsetOuter1"/>
    </filter>
    <path d="M0 4.31c5.517-1.047 9.699-.961 15.283 0-.199-1.592-.133-2.785 0-4.31C9.699.84 5.54.851 0 0c.133 1.525.1 2.718 0 4.31z" id="l"/>
    <filter x="-26.2%" y="-46.4%" width="152.3%" height="285.6%" filterUnits="objectBoundingBox" id="k">
      <feMorphology radius="1" operator="dilate" in="SourceAlpha" result="shadowSpreadOuter1"/>
      <feOffset dy="2" in="shadowSpreadOuter1" result="shadowOffsetOuter1"/>
      <feColorMatrix values="0 0 0 0 0.968627451 0 0 0 0 0.917647059 0 0 0 0 0.815686275 0 0 0 1 0" in="shadowOffsetOuter1"/>
    </filter>
    <path d="M82.88 4.31c5.516-1.047 9.698-.961 15.282 0-.199-1.592-.132-2.785 0-4.31-5.584.84-9.743.851-15.283 0 .133 1.525.1 2.718 0 4.31z" id="n"/>
    <filter x="-26.2%" y="-46.4%" width="152.3%" height="285.6%" filterUnits="objectBoundingBox" id="m">
      <feMorphology radius="1" operator="dilate" in="SourceAlpha" result="shadowSpreadOuter1"/>
      <feOffset dy="2" in="shadowSpreadOuter1" result="shadowOffsetOuter1"/>
      <feColorMatrix values="0 0 0 0 0.968627451 0 0 0 0 0.917647059 0 0 0 0 0.815686275 0 0 0 1 0" in="shadowOffsetOuter1"/>
    </filter>
  </defs>
  <g fill="none" fill-rule="evenodd">
    <g transform="translate(24.088 41.818)">
      <mask id="b" fill="#fff">
        <use xlink:href="#a"/>
      </mask>
      <use fill="#417505" xlink:href="#a"/>
      <g mask="url(#b)" fill-opacity=".1" fill="#000">
        <path d="M-3.784 26.145h68.116v1H-3.784zM-3.44 22.705h68.116v1H-3.44zM-3.784 19.265h68.116v1H-3.784zM-3.784 15.825h68.116v1H-3.784zM-3.784 12.385h68.116v1H-3.784zM-3.784 8.944h68.116v1H-3.784zM-3.784 5.504h68.116v1H-3.784zM-3.784 2.064h68.116v1H-3.784z"/>
      </g>
    </g>
    <path d="M28.984 36.36l-.056-.023c-.807.647-1.624 1.067-2.668 1.237-.046-.862-.046-1.68-.057-2.531.726.045 1.464.363 1.987.692l.045-.023c-.148-.578-.148-1.816 0-2.44l-.045-.023c-.568.363-1.272.692-1.998.738.01-.795 0-1.544.045-2.361.988.056 1.828.25 2.622.896l.08-.022a6.898 6.898 0 0 1 0-2.6c-2.112.193-3.588.136-5.302 0 .42 3.077.42 6.369 0 9.389 1.714-.16 3.258-.216 5.347-.012-.136-.806-.147-1.998 0-2.917zm7.527-6.426a8.574 8.574 0 0 1-2.85 0c.318 1.975.41 3.95.375 5.801-.738-2.157-1.317-4.53-1.487-5.801-1.113.148-1.941.17-3.031 0a35.602 35.602 0 0 1-.046 9.32 8.915 8.915 0 0 1 2.907 0c-.364-2.156-.477-4.336-.443-6.323.817 2.18 1.442 4.848 1.703 6.324.92-.16 2.055-.16 2.815 0a36.106 36.106 0 0 1 .057-9.321zm3.792 9.49c1.623 0 2.43-1.032 2.43-2.258 0-.795-.455-1.51-1.193-1.454.034 1-.386 1.51-.965 1.51-.704 0-1.135-.953-1.135-2.531 0-1.919.386-2.952 1.135-2.952.59 0 1.192.51 1.658 1.26l.08-.022c-.069-1.283-.08-1.976.045-3.122-.806.374-1.181-.057-2.066-.057-2.305 0-3.281 2.304-3.281 5.097 0 3.315 1.203 4.53 3.292 4.53zm9.286-9.49c-.953.125-1.896.125-2.85 0a35.93 35.93 0 0 1 .296 4.257 8.21 8.21 0 0 1-1.294 0c.023-1.487.102-2.77.25-4.257-.954.125-1.896.125-2.85 0 .386 3.077.386 6.369 0 9.332a8.01 8.01 0 0 1 2.85 0 45.575 45.575 0 0 1-.239-3.928c.42-.034.863-.034 1.283 0a32.146 32.146 0 0 1-.295 3.928 8.01 8.01 0 0 1 2.85 0 45.778 45.778 0 0 1 0-9.332zm5.824-.023c.273 3.043.681 6.619 1.329 9.344a8.58 8.58 0 0 0-2.748 0 29.847 29.847 0 0 0-.045-1.976c-.42-.023-.852-.023-1.272 0a29.847 29.847 0 0 0-.045 1.976 8.65 8.65 0 0 0-2.759 0c.647-2.725 1.056-6.301 1.328-9.344 1.272.17 2.94.182 4.212 0zm-2.656 6.267c.374.011.738.011 1.112 0a56.046 56.046 0 0 0-.522-4.484h-.068a56.046 56.046 0 0 0-.522 4.484zm11.307-6.244a8.574 8.574 0 0 1-2.85 0c.318 1.975.41 3.95.375 5.801-.738-2.157-1.317-4.53-1.487-5.801-1.113.148-1.941.17-3.031 0a35.602 35.602 0 0 1-.046 9.32 8.915 8.915 0 0 1 2.907 0c-.364-2.156-.477-4.336-.443-6.323.817 2.18 1.442 4.848 1.703 6.324.92-.16 2.055-.16 2.815 0a36.106 36.106 0 0 1 .057-9.321zm6.675-.011c-2.1.181-4.268.17-6.289 0a9.65 9.65 0 0 1 .023 2.917l.056.034a4.855 4.855 0 0 1 1.953-.84c.057 2.452-.159 4.7-.42 7.22.863-.17 2.168-.158 3.077 0-.273-2.497-.511-4.756-.432-7.22.818.148 1.408.477 1.964.84l.068-.034c-.136-.92-.136-2.066 0-2.917zm5.756 6.437l-.057-.023c-.806.647-1.623 1.067-2.667 1.237-.046-.862-.046-1.68-.057-2.531.726.045 1.464.363 1.986.692l.046-.023c-.148-.578-.148-1.816 0-2.44l-.046-.023c-.567.363-1.271.692-1.998.738.012-.795 0-1.544.046-2.361.987.056 1.828.25 2.622.896l.08-.022a6.898 6.898 0 0 1 0-2.6c-2.112.193-3.588.136-5.302 0 .42 3.077.42 6.369 0 9.389 1.714-.16 3.258-.216 5.347-.012-.136-.806-.147-1.998 0-2.917zm3.599-6.494c2.214 0 3.315 2.077 3.315 4.916 0 2.633-.942 4.54-3.315 4.54-.863 0-1.385-.181-1.987-.181-.374 0-.68.057-1.124.148.386-2.963.386-6.324 0-9.412.454.102.75.136 1.124.136.613 0 1.124-.147 1.987-.147zm-.227 7.56c.795 0 1.17-1.021 1.17-2.644 0-1.85-.375-3.009-1.193-3.009-.068 0-.136 0-.216.023a103.04 103.04 0 0 0 0 5.62c.091.01.16.01.239.01z" fill="#417505"/>
    <g transform="translate(23.787 73.072)">
      <mask id="d" fill="#fff">
        <use xlink:href="#c"/>
      </mask>
      <use fill="#417505" xlink:href="#c"/>
      <g mask="url(#d)" fill-opacity=".1" fill="#000">
        <path d="M-4.472 19.265h68.116v1H-4.472zM-4.128 15.825h68.116v1H-4.128zM-4.472 12.385h68.116v1H-4.472zM-4.472 8.944h68.116v1H-4.472zM-4.472 5.504h68.116v1H-4.472zM-4.472 2.064h68.116v1H-4.472z"/>
      </g>
    </g>
    <path d="M55.205 26.424c-.414.536-1.064.941-1.706.941-.817 0-1.189-.408-1.189-1.052 0-.78.607-1.858 1.078-2.589.235-.408.42-.706.334-.706-.111 0-1.288.78-1.944 1.846a16.596 16.596 0 0 0-1.164 2.29c-.1.224-.285.261-.434.075a.997.997 0 0 1-.17-.265c-.317.223-.695.39-1.105.39-.657 0-1.227-.533-1.227-1.388 0-.272.075-.62.248-1.028.248-.607.718-1.585 1.214-2.477-.384-.05-.607-.186-.706-.334-.173-.26-.05-.384.235-.372.285.013.62 0 .892-.025.384-.668.644-1.077.929-1.486.186-.272.334-.26.47-.025.087.15.137.36.137.508 0 .223-.05.508-.198.855.383.05.594.248.68.396.125.223.038.372-.26.335-.222-.025-.544 0-.817.037-.47.805-1.176 2.03-1.61 2.972a2.35 2.35 0 0 0-.223.929c0 .371.124.631.335.631.316 0 .702-.335 1.053-.828.018-.055.038-.114.061-.175.496-1.3 2.948-5.449 3.951-6.737.198-.248.384-.198.495.05.062.136.1.297.1.47 0 .335-.15.793-.446 1.313a55.266 55.266 0 0 1-1.14 1.734c.372-.273.805-.421 1.04-.421.36 0 .719.384.719.867 0 .173-.037.346-.136.52-.682 1.214-.991 1.734-1.127 2.03a2.008 2.008 0 0 0-.161.732c0 .26.062.42.235.42.418 0 1.044-.818 1.421-1.554.046-.351.165-.72.362-1.096.644-1.312 1.647-1.969 2.366-1.969.173 0 .31.025.433.1.347.197.595.396.768.643a.901.901 0 0 1 .124.459c0 .743-.83 2.043-1.92 2.043-.297 0-.594-.087-.879-.272a2.622 2.622 0 0 0-.111.73c0 .545.222.93.594.93.941 0 1.771-.917 2.279-1.685.136-.198.297-.223.396.025.037.111.05.47-.173.805-.52.755-1.511 1.337-2.477 1.35-.817.008-1.372-.369-1.626-.942zm2.988-3.48c-.186-.148-1.102.607-1.697 1.796a.5.5 0 0 0 .273.087c.297 0 .693-.372.941-.706.36-.483.62-1.065.483-1.177z" fill="#437502"/>
    <g fill="#F5A623">
      <path d="M97.863 113.118c-1.048-5.516-.962-9.698 0-15.283-1.592.2-2.785.133-4.31 0 .84 5.585.85 9.743 0 15.283 1.525-.132 2.718-.099 4.31 0zM97.863 96.543c-1.048-5.517-.962-9.7 0-15.283-1.592.199-2.785.132-4.31 0 .84 5.584.85 9.743 0 15.283 1.525-.133 2.718-.1 4.31 0zM97.863 79.967c-1.048-5.517-.962-9.7 0-15.283-1.592.199-2.785.132-4.31 0 .84 5.584.85 9.743 0 15.283 1.525-.133 2.718-.1 4.31 0zM97.863 63.39c-1.048-5.516-.962-9.698 0-15.282-1.592.199-2.785.132-4.31 0 .84 5.584.85 9.743 0 15.283 1.525-.133 2.718-.1 4.31 0zM97.863 46.815c-1.048-5.517-.962-9.699 0-15.283-1.592.199-2.785.133-4.31 0 .84 5.584.85 9.743 0 15.283 1.525-.133 2.718-.1 4.31 0z"/>
      <path d="M97.863 96.543c-1.048-5.517-.962-9.7 0-15.283-1.592.199-2.785.132-4.31 0 .84 5.584.85 9.743 0 15.283 1.525-.133 2.718-.1 4.31 0zM97.863 46.815c-1.048-5.517-.962-9.699 0-15.283-1.592.199-2.785.133-4.31 0 .84 5.584.85 9.743 0 15.283 1.525-.133 2.718-.1 4.31 0z"/>
    </g>
    <g fill="#F5A623">
      <path d="M14.266 113.118c-1.047-5.516-.961-9.698 0-15.283-1.592.2-2.785.133-4.31 0 .84 5.585.851 9.743 0 15.283 1.525-.132 2.718-.099 4.31 0zM14.266 96.543c-1.047-5.517-.961-9.7 0-15.283-1.592.199-2.785.132-4.31 0 .84 5.584.851 9.743 0 15.283 1.525-.133 2.718-.1 4.31 0zM14.266 79.967c-1.047-5.517-.961-9.7 0-15.283-1.592.199-2.785.132-4.31 0 .84 5.584.851 9.743 0 15.283 1.525-.133 2.718-.1 4.31 0zM14.266 63.39c-1.047-5.516-.961-9.698 0-15.282-1.592.199-2.785.132-4.31 0 .84 5.584.851 9.743 0 15.283 1.525-.133 2.718-.1 4.31 0zM14.266 46.815c-1.047-5.517-.961-9.699 0-15.283-1.592.199-2.785.133-4.31 0 .84 5.584.851 9.743 0 15.283 1.525-.133 2.718-.1 4.31 0z"/>
      <path d="M14.266 96.543c-1.047-5.517-.961-9.7 0-15.283-1.592.199-2.785.132-4.31 0 .84 5.584.851 9.743 0 15.283 1.525-.133 2.718-.1 4.31 0zM14.266 46.815c-1.047-5.517-.961-9.699 0-15.283-1.592.199-2.785.133-4.31 0 .84 5.584.851 9.743 0 15.283 1.525-.133 2.718-.1 4.31 0z"/>
      <path d="M14.266 46.815c-1.047-5.517-.961-9.699 0-15.283-1.592.199-2.785.133-4.31 0 .84 5.584.851 9.743 0 15.283 1.525-.133 2.718-.1 4.31 0z"/>
    </g>
    <g transform="rotate(-30 66.103 13.692)">
      <use fill="#000" filter="url(#e)" xlink:href="#f"/>
      <use fill="#F5A623" xlink:href="#f"/>
    </g>
    <path d="M18.575 30.299c4.254-3.665 7.919-5.682 13.235-7.641-.968-1.28-1.507-2.346-2.155-3.733-4.415 3.52-8.012 5.609-13.235 7.642.877 1.254 1.445 2.304 2.155 3.732zM32.93 22.011c4.254-3.665 7.919-5.682 13.235-7.641-.968-1.279-1.507-2.346-2.155-3.733-4.415 3.52-8.012 5.609-13.235 7.642.877 1.254 1.445 2.304 2.155 3.732zM47.285 13.723c4.254-3.665 7.919-5.682 13.235-7.641-.968-1.279-1.507-2.346-2.154-3.733-4.416 3.52-8.013 5.609-13.236 7.642.877 1.254 1.445 2.304 2.155 3.732zM4.22 38.587c4.254-3.665 7.919-5.682 13.235-7.642-.968-1.278-1.507-2.345-2.155-3.732-4.416 3.52-8.012 5.609-13.235 7.642.877 1.254 1.445 2.304 2.155 3.732z" fill="#F5A623"/>
    <path d="M47.285 13.723c4.254-3.665 7.919-5.682 13.235-7.641-.968-1.279-1.507-2.346-2.154-3.733-4.416 3.52-8.013 5.609-13.236 7.642.877 1.254 1.445 2.304 2.155 3.732z" fill="#F5A623"/>
    <g>
      <g transform="rotate(30 20.353 91.241)">
        <use fill="#000" filter="url(#g)" xlink:href="#h"/>
        <use fill="#F5A623" xlink:href="#h"/>
      </g>
      <path d="M60.602 14.1c5.301 1.85 8.88 4.016 13.236 7.64.623-1.477 1.277-2.477 2.154-3.732-5.256-2.064-8.863-4.134-13.235-7.641-.648 1.387-1.273 2.404-2.155 3.732zM74.957 22.387c5.301 1.852 8.88 4.017 13.236 7.642.623-1.478 1.277-2.478 2.155-3.733-5.257-2.064-8.864-4.134-13.236-7.641-.648 1.387-1.273 2.404-2.155 3.732zM89.312 30.675c5.302 1.852 8.88 4.017 13.236 7.642.623-1.478 1.277-2.478 2.155-3.733-5.257-2.064-8.863-4.134-13.236-7.641-.647 1.387-1.273 2.404-2.155 3.732zM46.247 5.811c5.301 1.852 8.88 4.018 13.235 7.642.624-1.478 1.278-2.478 2.155-3.732-5.256-2.064-8.863-4.135-13.235-7.642-.648 1.387-1.273 2.404-2.155 3.732z" fill="#F5A623"/>
      <g transform="rotate(30 20.353 91.241)">
        <use fill="#000" filter="url(#i)" xlink:href="#j"/>
        <use fill="#F5A623" xlink:href="#j"/>
      </g>
    </g>
    <g>
      <g transform="translate(4.452 101.078)">
        <use fill="#000" filter="url(#k)" xlink:href="#l"/>
        <use fill="#F5A623" xlink:href="#l"/>
      </g>
      <path d="M21.028 105.387c5.516-1.047 9.698-.96 15.282 0-.198-1.59-.132-2.784 0-4.31-5.584.841-9.742.852-15.282 0 .132 1.526.099 2.72 0 4.31zM37.603 105.387c5.517-1.047 9.7-.96 15.283 0-.199-1.59-.132-2.784 0-4.31-5.584.841-9.743.852-15.283 0 .133 1.526.1 2.72 0 4.31zM54.18 105.387c5.516-1.047 9.698-.96 15.282 0-.199-1.59-.132-2.784 0-4.31-5.584.841-9.743.852-15.283 0 .133 1.526.1 2.72 0 4.31zM70.755 105.387c5.517-1.047 9.699-.96 15.283 0-.199-1.59-.133-2.784 0-4.31-5.584.841-9.743.852-15.283 0 .133 1.526.1 2.72 0 4.31z" fill="#F5A623"/>
      <path d="M21.028 105.387c5.516-1.047 9.698-.96 15.282 0-.198-1.59-.132-2.784 0-4.31-5.584.841-9.742.852-15.282 0 .132 1.526.099 2.72 0 4.31zM70.755 105.387c5.517-1.047 9.699-.96 15.283 0-.199-1.59-.133-2.784 0-4.31-5.584.841-9.743.852-15.283 0 .133 1.526.1 2.72 0 4.31z" fill="#F5A623"/>
      <g transform="translate(4.452 101.078)">
        <use fill="#000" filter="url(#m)" xlink:href="#n"/>
        <use fill="#F5A623" xlink:href="#n"/>
      </g>
    </g>
  </g>
</svg>