<?xml version="1.0" encoding="UTF-8"?>
<svg width="89px" height="114px" viewBox="0 0 89 114" version="1.1" xmlns="http://www.w3.org/2000/svg" xmlns:xlink="http://www.w3.org/1999/xlink">
    <!-- Generator: Sketch 45.2 (43514) - http://www.bohemiancoding.com/sketch -->
    <title>Logo</title>
    <desc>Created with Sketch.</desc>
    <defs>
        <path d="M27.8696099,0.754592327 C18.5629712,1.55949081 8.95449561,1.50918465 0,0.754592327 C0.653980016,4.52755396 0.754592327,9.60847563 0.10061231,13.6832742 L0.352143086,13.8341927 C2.56561391,12.2747018 5.28214629,10.8158233 9.00480177,10.1115372 C9.25633254,20.9776667 8.30051559,30.9382854 7.14347403,42.1062518 C10.9667418,41.3516595 16.7519497,41.4019657 20.7764421,42.1062518 C19.5690943,31.0388977 18.5126651,21.0279728 18.8648082,10.1115372 C22.4868513,10.7655172 25.1027714,12.2243957 27.567773,13.8341927 L27.8696099,13.6832742 C27.2659361,9.60847563 27.2659361,4.52755396 27.8696099,0.754592327 Z M35.2143086,11.9728649 C38.3835964,11.9728649 40.8989041,9.60847563 40.8989041,6.23796323 C40.8989041,2.96806315 38.3835964,0.452755396 35.2143086,0.452755396 C31.9947147,0.452755396 29.5297131,2.96806315 29.5297131,6.23796323 C29.5297131,9.60847563 31.9947147,11.9728649 35.2143086,11.9728649 Z M29.6806315,42.0559457 C33.5542055,41.4019657 37.0253302,41.4019657 40.7479856,42.0559457 C39.4400256,30.1836931 39.4400256,26.3604253 40.546761,14.9409281 C36.7234932,15.4439896 33.7051239,15.4439896 29.8818561,14.9409281 C30.9382854,26.3604253 30.9382854,30.1836931 29.6806315,42.0559457 Z M62.3293262,21.8328713 C72.9942311,19.468482 70.0261679,8.45143406 72.6923941,0.804898482 C68.416371,1.4588785 63.4360616,1.4588785 59.4618753,0.804898482 C60.0655492,10.6649049 60.3673861,19.1163389 54.8337091,19.8709313 C54.7834029,14.2869481 55.2361583,7.49561711 55.8901383,0.804898482 C51.6644213,1.35826619 47.4890104,1.35826619 43.2632934,0.804898482 C44.9737027,14.4378665 44.9737027,29.0266515 43.2632934,42.156558 C47.5896227,41.4019657 51.7650336,41.4019657 55.8901383,42.156558 C55.2361583,35.9185948 54.8840152,29.5297131 54.8840152,24.1972606 C60.3673861,25.0021591 60.1661615,33.0008378 59.7637123,42.156558 C63.7378985,41.3516595 68.768514,41.3516595 73.0445372,42.156558 C69.8249433,35.8179824 73.950048,23.5935867 62.3293262,21.8328713 Z M79.9364805,11.9728649 C83.1057682,11.9728649 85.621076,9.60847563 85.621076,6.23796323 C85.621076,2.96806315 83.1057682,0.452755396 79.9364805,0.452755396 C76.7168865,0.452755396 74.2518849,2.96806315 74.2518849,6.23796323 C74.2518849,9.60847563 76.7168865,11.9728649 79.9364805,11.9728649 Z M74.4028034,42.0559457 C78.2763774,41.4019657 81.7475021,41.4019657 85.4701575,42.0559457 C84.1621975,30.1836931 84.1621975,26.3604253 85.2689329,14.9409281 C81.4456651,15.4439896 78.4272958,15.4439896 74.604028,14.9409281 C75.6604573,26.3604253 75.6604573,30.1836931 74.4028034,42.0559457 Z" id="path-1"></path>
        <path d="M8.95348949,33.3268216 C15.5456081,33.3268216 18.9986225,29.3244639 18.9986225,24.2626586 C18.9986225,13.8643763 8.32566867,12.7264511 8.32566867,8.88104862 C8.32566867,7.9000786 9.03196709,7.27225778 10.2876087,7.27225778 C12.21031,7.27225778 15.0747424,8.33170541 17.6645033,10.9607051 L17.8999361,10.8822275 C17.4683093,6.99758618 17.4683093,4.1331537 17.8999361,0.719378018 C14.564638,1.73958684 13.3482352,0.40546761 10.0521759,0.40546761 C4.00940056,0.40546761 0.281714469,3.9369597 0.281714469,9.54810824 C0.281714469,19.8679129 10.6799967,20.1033457 10.6799967,24.772763 C10.6799967,26.0676435 9.77750431,26.8524195 8.24719107,26.8524195 C5.73590781,26.8524195 2.79299773,24.0272258 1.02725169,21.2020321 L0.75258008,21.2805097 C1.22344569,25.4005838 1.14496809,29.0890311 0.75258008,33.0129112 C3.93092296,31.9142248 5.6181914,33.3268216 8.95348949,33.3268216 Z M42.6596195,0.758616819 C39.3635603,1.19024363 36.1067398,1.19024363 32.8106805,0.758616819 C33.4777401,5.97737735 33.7524117,10.2936455 33.8308893,15.4731672 C32.3398149,15.5908836 30.8487404,15.5908836 29.357666,15.4731672 C29.4361436,10.3328843 29.7108152,5.89889975 30.2209196,0.758616819 C26.9248603,1.19024363 23.6680399,1.19024363 20.3719806,0.758616819 C21.7060998,11.3923319 21.7060998,22.7715842 20.3719806,33.0129112 C23.7465175,32.4243292 27.0033379,32.4243292 30.2209196,33.0129112 C29.750054,28.1865387 29.4753824,24.2626586 29.3969048,19.4362861 C30.8487404,19.3185697 32.3790537,19.3185697 33.8308893,19.4362861 C33.7524117,24.2626586 33.4385013,28.3042551 32.8106805,33.0129112 C36.1852174,32.4243292 39.4420379,32.4243292 42.6596195,33.0129112 C41.5609331,22.5753902 41.5609331,11.3138543 42.6596195,0.758616819 Z M63.1030349,22.9677782 L62.9068408,22.8893006 C60.120886,25.1259122 57.2956923,26.5777479 53.6857226,27.1663299 C53.5287674,24.184181 53.5287674,21.3589873 53.4895286,18.4160773 C56.0008119,18.5730325 58.5513339,19.6717189 60.3563188,20.8096441 L60.513274,20.7311665 C60.0031696,18.7299877 60.0031696,14.4529584 60.513274,12.2948243 L60.3563188,12.2163467 C58.3943787,13.4719883 55.9615731,14.6099136 53.4502898,14.7668688 C53.4895286,12.0201527 53.4502898,9.43039184 53.607245,6.60519817 C57.0210207,6.80139217 59.924692,7.46845179 62.671408,9.70506344 L62.9460796,9.62658584 C62.3574976,6.44824296 62.3967364,3.42685529 62.9460796,0.640900416 C55.6476627,1.30796003 50.5466185,1.11176603 44.6215596,0.640900416 C46.0733952,11.2746155 46.0733952,22.6538678 44.6215596,33.0913888 C50.5466185,32.5420456 55.8830955,32.3458516 63.1030349,33.05215 C62.6321692,30.2661952 62.5929304,26.1461211 63.1030349,22.9677782 Z M75.5417348,0.523184013 C83.193301,0.523184013 86.9994647,7.70388459 86.9994647,17.5135848 C86.9994647,26.6169867 83.7426442,33.2091052 75.5417348,33.2091052 C72.5595859,33.2091052 70.754601,32.5812844 68.6749446,32.5812844 C67.3800642,32.5812844 66.3206165,32.7774784 64.7903033,33.0913888 C66.1244225,22.8500618 66.1244225,11.2353767 64.7903033,0.562422814 C66.3598553,0.915572023 67.3800642,1.03328843 68.6749446,1.03328843 C70.7938398,1.03328843 72.5595859,0.523184013 75.5417348,0.523184013 Z M74.7569587,26.6562255 C77.5036748,26.6562255 78.7985552,23.1247334 78.7985552,17.5135848 C78.7985552,11.1176603 77.5036748,7.11530258 74.6784811,7.11530258 C74.4430483,7.11530258 74.2076155,7.11530258 73.9329439,7.19378018 C73.7367499,14.0605704 73.7759887,19.9071517 73.9329439,26.6169867 C74.2468543,26.6562255 74.4822871,26.6562255 74.7569587,26.6562255 Z" id="path-3"></path>
    </defs>
    <g id="Page-1" stroke="none" stroke-width="1" fill="none" fill-rule="evenodd">
        <g id="Desktop-Copy" transform="translate(-169.000000, -29.000000)">
            <g id="Logo" transform="translate(169.000000, 29.000000)">
                <g id="TiKi" transform="translate(1.299295, 34.226621)">
                    <mask id="mask-2" fill="white">
                        <use xlink:href="#path-1"></use>
                    </mask>
                    <use id="Mask" fill="#FFFFFF" xlink:href="#path-1"></use>
                </g>
                <path d="M8.45921156,26.2441688 L8.37620641,26.2109668 C7.19753319,27.1572256 6.00225895,27.7714637 4.47496408,28.0204792 C4.40855995,26.7588008 4.40855995,25.5635266 4.39195892,24.3184492 C5.45442492,24.3848534 6.53349194,24.8496822 7.29713938,25.3311121 L7.3635435,25.2979101 C7.1477301,24.4512575 7.1477301,22.6417451 7.3635435,21.7286884 L7.29713938,21.6954863 C6.46708782,22.2267193 5.43782389,22.7081492 4.37535789,22.7745533 C4.39195892,21.6124811 4.37535789,20.5168131 4.44176202,19.3215388 C5.88605173,19.404544 7.11452804,19.6867615 8.27660022,20.6330203 L8.39280744,20.5998182 C8.14379197,19.2551347 8.160393,17.9768553 8.39280744,16.7981821 C5.30501564,17.0803996 3.14688158,16.9973945 0.640125873,16.7981821 C1.25436403,21.2970616 1.25436403,26.1113606 0.640125873,30.5272349 C3.14688158,30.2948205 5.40462182,30.2118153 8.45921156,30.5106339 C8.25999919,29.3319607 8.24339816,27.5888524 8.45921156,26.2441688 Z M19.4656952,16.8479852 C18.1376127,17.0803996 16.6103179,17.0803996 15.2988364,16.8479852 C15.7636653,19.7365646 15.8964735,22.6251441 15.8466704,25.3311121 C14.7676034,22.1769162 13.9209508,18.7073007 13.6719354,16.8479852 C12.0450343,17.0637986 10.833159,17.0970007 9.23946003,16.8479852 C9.80389509,21.1808543 9.80389509,25.9785524 9.1730559,30.4774318 C10.5011384,30.2450174 12.0118322,30.2450174 13.4229199,30.4774318 C12.8916869,27.3232359 12.7256766,24.1358379 12.7754797,21.2306574 C13.9707539,24.4180554 14.8838106,28.3192977 15.2656343,30.4774318 C16.6103179,30.2450174 18.270421,30.2450174 19.3826901,30.4774318 C18.8348561,26.1445627 18.8348561,21.3468646 19.4656952,16.8479852 Z M25.0104397,30.7264473 C27.3843871,30.7264473 28.5630603,29.2157534 28.5630603,27.4228421 C28.5630603,26.2607699 27.8990191,25.2149049 26.8199521,25.2979101 C26.8697551,26.7588008 26.255517,27.5058472 25.4088644,27.5058472 C24.3796005,27.5058472 23.7487613,26.1113606 23.7487613,23.8038173 C23.7487613,20.998243 24.3131963,19.4875492 25.4088644,19.4875492 C26.272118,19.4875492 27.1519727,20.2345956 27.832615,21.3302636 L27.9488222,21.2970616 C27.849216,19.421145 27.832615,18.4084821 28.0152263,16.731778 C26.8365531,17.279612 26.2887191,16.6487728 24.9938386,16.6487728 C21.6238293,16.6487728 20.1961406,20.0187822 20.1961406,24.1026358 C20.1961406,28.9501369 21.9558499,30.7264473 25.0104397,30.7264473 Z M38.5900832,16.8479852 C37.1955965,17.0305965 35.817711,17.0305965 34.4232243,16.8479852 C34.7054419,19.0559223 34.8216491,20.8820358 34.8548511,23.0733719 C34.224012,23.123175 33.5931728,23.123175 32.9623336,23.0733719 C32.9955357,20.8986368 33.1117429,19.0227203 33.3275563,16.8479852 C31.9330697,17.0305965 30.5551841,17.0305965 29.1606975,16.8479852 C29.7251325,21.3468646 29.7251325,26.1611637 29.1606975,30.4940328 C30.5883861,30.2450174 31.9662717,30.2450174 33.3275563,30.4940328 C33.1283439,28.452106 33.0121367,26.7920029 32.9789346,24.750076 C33.5931728,24.7002729 34.240613,24.7002729 34.8548511,24.750076 C34.8216491,26.7920029 34.6888408,28.5019091 34.4232243,30.4940328 C35.850913,30.2450174 37.2287986,30.2450174 38.5900832,30.4940328 C38.1252543,26.0781585 38.1252543,21.3136626 38.5900832,16.8479852 Z M47.1064122,16.8147831 C47.5048369,21.2638595 48.102474,26.4931843 49.0487328,30.4774318 C47.7372514,30.2616184 46.3427647,30.2616184 45.0312833,30.4774318 C45.0478843,29.5809761 45.0146822,28.6015153 44.9648791,27.5888524 C44.350641,27.5556503 43.7198018,27.5556503 43.1055636,27.5888524 C43.0557606,28.6015153 43.0225585,29.5809761 43.0391595,30.4774318 C41.7276781,30.2616184 40.3165904,30.2616184 39.0051089,30.4774318 C39.9513677,26.4931843 40.5490048,21.2638595 40.9474296,16.8147831 C42.8067451,17.0637986 45.2470967,17.0803996 47.1064122,16.8147831 Z M43.2217709,25.9785524 C43.7696049,25.9951534 44.3008379,25.9951534 44.8486719,25.9785524 C44.6826616,23.7374131 44.4004441,21.4132688 44.0850245,19.421145 L43.9854183,19.421145 C43.6699987,21.4132688 43.3877812,23.7374131 43.2217709,25.9785524 Z M59.7563979,16.8479852 C58.4283154,17.0803996 56.9010206,17.0803996 55.5895391,16.8479852 C56.054368,19.7365646 56.1871762,22.6251441 56.1373731,25.3311121 C55.0583061,22.1769162 54.2116535,18.7073007 53.962638,16.8479852 C52.335737,17.0637986 51.1238617,17.0970007 49.5301627,16.8479852 C50.0945978,21.1808543 50.0945978,25.9785524 49.4637586,30.4774318 C50.7918411,30.2450174 52.3025349,30.2450174 53.7136226,30.4774318 C53.1823896,27.3232359 53.0163793,24.1358379 53.0661824,21.2306574 C54.2614566,24.4180554 55.1745133,28.3192977 55.556337,30.4774318 C56.9010206,30.2450174 58.5611237,30.2450174 59.6733928,30.4774318 C59.1255587,26.1445627 59.1255587,21.3468646 59.7563979,16.8479852 Z M69.5178043,16.8313842 C66.4466135,17.0970007 63.2758165,17.0803996 60.320833,16.8313842 C60.5366464,18.0764615 60.5698485,19.7531657 60.3540351,21.0978492 L60.4370402,21.1476523 C61.1674856,20.6330203 62.0639413,20.1515904 63.2924176,19.919176 C63.3754227,23.5049987 63.0600031,26.7920029 62.6781794,30.4774318 C63.9398578,30.2284163 65.8489764,30.2450174 67.1770589,30.4774318 C66.7786341,26.8252049 66.4300125,23.5215997 66.5462197,19.919176 C67.7414939,20.1349894 68.6047476,20.6164193 69.4181981,21.1476523 L69.5178043,21.0978492 C69.3185919,19.7531657 69.3185919,18.0764615 69.5178043,16.8313842 Z M77.9345271,26.2441688 L77.8515219,26.2109668 C76.6728487,27.1572256 75.4775745,27.7714637 73.9502796,28.0204792 C73.8838755,26.7588008 73.8838755,25.5635266 73.8672744,24.3184492 C74.9297404,24.3848534 76.0088075,24.8496822 76.7724549,25.3311121 L76.838859,25.2979101 C76.6230456,24.4512575 76.6230456,22.6417451 76.838859,21.7286884 L76.7724549,21.6954863 C75.9424033,22.2267193 74.9131394,22.7081492 73.8506734,22.7745533 C73.8672744,21.6124811 73.8506734,20.5168131 73.9170775,19.3215388 C75.3613672,19.404544 76.5898436,19.6867615 77.7519157,20.6330203 L77.868123,20.5998182 C77.6191075,19.2551347 77.6357085,17.9768553 77.868123,16.7981821 C74.7803312,17.0803996 72.6221971,16.9973945 70.1154414,16.7981821 C70.7296795,21.2970616 70.7296795,26.1113606 70.1154414,30.5272349 C72.6221971,30.2948205 74.8799373,30.2118153 77.9345271,30.5106339 C77.7353147,29.3319607 77.7187137,27.5888524 77.9345271,26.2441688 Z M83.197054,16.748379 C86.434255,16.748379 88.0445551,19.7863677 88.0445551,23.9366255 C88.0445551,27.7880647 86.6666695,30.577038 83.197054,30.577038 C81.9353756,30.577038 81.1717282,30.3114215 80.2918735,30.3114215 C79.7440395,30.3114215 79.2958116,30.3944266 78.6483714,30.5272349 C79.2128065,26.1943658 79.2128065,21.2804605 78.6483714,16.76498 C79.3124127,16.9143893 79.7440395,16.9641924 80.2918735,16.9641924 C81.1883292,16.9641924 81.9353756,16.748379 83.197054,16.748379 Z M82.8650333,27.8046658 C84.0271055,27.8046658 84.5749396,26.310573 84.5749396,23.9366255 C84.5749396,21.2306574 84.0271055,19.5373522 82.8318313,19.5373522 C82.7322251,19.5373522 82.6326189,19.5373522 82.5164117,19.5705543 C82.4334065,22.4757348 82.4500076,24.9492884 82.5164117,27.7880647 C82.6492199,27.8046658 82.7488261,27.8046658 82.8650333,27.8046658 Z" id="ENCHANTED" fill="#FFFFFF"></path>
                <g id="SHED" transform="translate(0.859849, 79.929025)">
                    <mask id="mask-4" fill="white">
                        <use xlink:href="#path-3"></use>
                    </mask>
                    <use id="Mask" fill="#FFFFFF" xlink:href="#path-3"></use>
                </g>
                <path d="M46.8023746,11.7156017 C46.1958262,12.4987598 45.2457918,13.0920247 44.3076227,13.0920247 C43.1123485,13.0920247 42.569042,12.4943876 42.569042,11.5526564 C42.569042,10.4117128 43.4564426,8.83612398 44.1446308,7.76762124 C44.4887249,7.16998412 44.7603781,6.73533894 44.6336066,6.73533894 C44.4706147,6.73533894 42.7501442,7.87628254 41.7903027,9.4337611 C41.1745554,10.4479332 40.5225876,11.6975381 40.0879424,12.784151 C39.9430607,13.1101349 39.6714075,13.1644656 39.4540849,12.8928123 C39.3596798,12.7807062 39.2691193,12.6589885 39.2055764,12.5044862 C38.7412546,12.8314518 38.1889579,13.0739145 37.5887327,13.0739145 C36.6288912,13.0739145 35.7958213,12.2951752 35.7958213,11.0455703 C35.7958213,10.6471456 35.9044826,10.1400595 36.1580256,9.54242239 C36.5202299,8.65502182 37.2084181,7.22431477 37.9328268,5.92037923 C37.3714101,5.84793836 37.0454262,5.64872599 36.9005445,5.4314034 C36.6470014,5.05108887 36.8281036,4.86998671 37.2446386,4.88809692 C37.6611735,4.90620714 38.1501493,4.88809692 38.5485741,4.85187649 C39.1099908,3.87392484 39.4903053,3.27628771 39.9068403,2.67865059 C40.1784935,2.28022584 40.3958161,2.29833606 40.5950285,2.64243016 C40.7218,2.85975275 40.7942409,3.16762642 40.7942409,3.38494901 C40.7942409,3.71093289 40.7218,4.12746786 40.5044774,4.6345539 C41.0658941,4.70699476 41.3737678,4.99675822 41.5005393,5.21408081 C41.6816414,5.54006469 41.5548699,5.75738728 41.1202247,5.70305664 C40.7942409,5.6668362 40.3233752,5.70305664 39.9249505,5.75738728 C39.2367623,6.93455131 38.20448,8.72746268 37.5706224,10.1038391 C37.3532999,10.5928149 37.2446386,11.0636805 37.2446386,11.4621053 C37.2446386,12.0054117 37.4257407,12.3857263 37.7336144,12.3857263 C38.196761,12.3857263 38.7611419,11.8951295 39.2735652,11.1743621 C39.299795,11.0932376 39.3296913,11.0081431 39.3635338,10.9187988 C40.0879424,9.01722613 43.6737652,2.95030383 45.1406927,1.06684138 C45.4304561,0.704637064 45.7021094,0.777077928 45.8651013,1.13928224 C45.9556524,1.33849462 46.009983,1.57392742 46.009983,1.82747045 C46.009983,2.31644627 45.7926604,2.98652426 45.3580153,3.74715333 C44.9958109,4.34479045 43.8729776,6.02904052 43.6918754,6.28258354 C44.2351819,5.88415879 44.8690394,5.6668362 45.2131335,5.6668362 C45.7383298,5.6668362 46.263526,6.2282529 46.263526,6.93455131 C46.263526,7.18809434 46.2091954,7.44163736 46.0643137,7.69518038 C45.0682518,9.46998153 44.6154964,10.2306106 44.416284,10.6652558 C44.2532921,11.0636805 44.1808512,11.4439951 44.1808512,11.7337585 C44.1808512,12.114073 44.2714023,12.3495058 44.5249453,12.3495058 C45.1365666,12.3495058 46.0517012,11.152314 46.6032659,10.0758268 C46.6703597,9.56283403 46.8442393,9.02359037 47.1328164,8.47391966 C48.0745476,6.55423678 49.5414751,5.59439534 50.5918676,5.59439534 C50.8454107,5.59439534 51.044623,5.63061577 51.2257252,5.73927707 C51.7328112,6.02904052 52.0950155,6.31880397 52.3485586,6.68100829 C52.4572199,6.84400023 52.5296607,7.11565347 52.5296607,7.35108628 C52.5296607,8.43769923 51.3162763,10.3392719 49.7225773,10.3392719 C49.2879321,10.3392719 48.8532869,10.2125004 48.4367519,9.94084714 C48.3280906,10.3030515 48.27376,10.683366 48.27376,11.0093499 C48.27376,11.8061994 48.5997439,12.3676161 49.1430504,12.3676161 C50.5194268,12.3676161 51.7328112,11.0274601 52.4753301,9.90462671 C52.6745425,9.61486326 52.9099753,9.57864283 53.054857,9.94084714 C53.1091876,10.1038391 53.1272978,10.6290353 52.801314,11.1180112 C52.0406849,12.2227343 50.5918676,13.0739145 49.1792708,13.0920247 C47.9855146,13.1048608 47.1738707,12.5536263 46.8023746,11.7156017 Z M51.1713945,6.62667764 C50.8997413,6.40935505 49.5595853,7.51407822 48.690295,9.25265894 C48.8351767,9.34321002 48.9619482,9.37943045 49.0887197,9.37943045 C49.5233649,9.37943045 50.1028918,8.83612398 50.4650961,8.34714815 C50.9902924,7.64084973 51.3706069,6.78966959 51.1713945,6.62667764 Z" id="the" fill="#FFFFFF"></path>
            </g>
        </g>
    </g>
</svg>